<svg width="108" height="108" viewBox="0 0 108 108" fill="none" xmlns="http://www.w3.org/2000/svg">
<path fill-rule="evenodd" clip-rule="evenodd" d="M107.137 1.07105C109.258 3.19191 104.158 12.0975 94.363 24.4845C86.1221 34.9062 74.558 47.7922 61.1751 61.1751C47.7922 74.558 34.9062 86.1221 24.4844 94.363C12.0975 104.158 3.19189 109.258 1.07103 107.137C-1.04778 105.018 4.04043 96.1277 13.8168 83.7595C14.5833 84.7928 15.3888 85.7955 16.231 86.7655C13.5205 91.0833 12.4419 94.0311 13.4393 95.0285C14.4401 96.0293 17.405 94.9398 21.7475 92.2084C30.4391 86.7415 44.6491 74.6972 59.6732 59.6732C74.6972 44.6491 86.7414 30.4391 92.2084 21.7475C94.9397 17.405 96.0293 14.4401 95.0285 13.4393C94.0311 12.4419 91.0833 13.5205 86.7655 16.231C85.7955 15.3888 84.7928 14.5833 83.7594 13.8168C96.1277 4.04045 105.018 -1.04777 107.137 1.07105Z" fill="white"/>
<path d="M54 104C81.6142 104 104 81.6142 104 54C104 42.9604 100.422 32.7565 94.363 24.4845C86.1221 34.9062 74.558 47.7922 61.1751 61.1751C47.7922 74.558 34.9062 86.1221 24.4844 94.363C32.7565 100.422 42.9604 104 54 104Z" fill="url(#paint0_linear_49_25)"/>
<path d="M86.7655 16.231C78.078 21.6845 63.8447 33.7445 48.7946 48.7946C33.7445 63.8447 21.6845 78.078 16.231 86.7655C17.9267 88.7185 19.7714 90.5387 21.7475 92.2084C30.4391 86.7415 44.6491 74.6972 59.6732 59.6732C74.6972 44.6491 86.7414 30.4391 92.2084 21.7475C90.5387 19.7715 88.7185 17.9267 86.7655 16.231Z" fill="url(#paint1_linear_49_25)"/>
<path d="M54 3.99998C26.3857 3.99998 3.99997 26.3857 3.99997 54C3.99997 65.1483 7.64855 75.4444 13.8168 83.7595C22.0595 73.3314 33.6348 60.4312 47.033 47.033C60.4312 33.6348 73.3314 22.0595 83.7594 13.8168C75.4444 7.64857 65.1483 3.99998 54 3.99998Z" fill="url(#paint2_linear_49_25)"/>
<path d="M13.8168 83.7595C14.5833 84.7928 15.3888 85.7955 16.231 86.7655C21.6845 78.078 33.7445 63.8447 48.7946 48.7946C63.8447 33.7445 78.078 21.6845 86.7655 16.231C85.7955 15.3888 84.7928 14.5833 83.7594 13.8168C73.3314 22.0595 60.4312 33.6348 47.033 47.033C33.6348 60.4312 22.0595 73.3314 13.8168 83.7595Z" fill="black"/>
<defs>
<linearGradient id="paint0_linear_49_25" x1="54.104" y1="0.595535" x2="54.104" y2="107.613" gradientUnits="userSpaceOnUse">
<stop stop-color="white"/>
<stop offset="1" stop-color="#1400FF"/>
</linearGradient>
<linearGradient id="paint1_linear_49_25" x1="54.104" y1="0.595535" x2="54.104" y2="107.613" gradientUnits="userSpaceOnUse">
<stop stop-color="white"/>
<stop offset="1" stop-color="#1400FF"/>
</linearGradient>
<linearGradient id="paint2_linear_49_25" x1="54.104" y1="0.595535" x2="54.104" y2="107.613" gradientUnits="userSpaceOnUse">
<stop stop-color="white"/>
<stop offset="1" stop-color="#1400FF"/>
</linearGradient>
</defs>
</svg>
