<svg width="206" height="60" viewBox="0 0 206 60" fill="none" xmlns="http://www.w3.org/2000/svg">
<path fill-rule="evenodd" clip-rule="evenodd" d="M0 0H205.931L206 60H0V0ZM6.855 53V8.2H17.287L37.063 32.0747V8.2H49.479V53H39.047L19.271 29.1253V53H6.855ZM70.9615 25.544H90.8655V35.016H70.9615V43.208H94.3855V53H58.4175V8.2H93.5535V17.992H70.9615V25.544ZM114.09 52.168C117.119 53.32 120.426 53.896 124.01 53.896C127.636 53.896 130.943 53.32 133.93 52.168C136.959 51.016 139.583 49.3947 141.801 47.304C144.02 45.2133 145.748 42.76 146.986 39.944C148.266 37.0853 148.906 33.9707 148.906 30.6C148.906 27.2293 148.266 24.136 146.986 21.32C145.748 18.504 144.02 16.0507 141.801 13.96C139.583 11.8267 136.959 10.184 133.93 9.032C130.943 7.88 127.636 7.304 124.01 7.304C120.426 7.304 117.119 7.88 114.09 9.032C111.06 10.184 108.415 11.8267 106.154 13.96C103.935 16.0507 102.207 18.504 100.97 21.32C99.7322 24.136 99.1135 27.2293 99.1135 30.6C99.1135 33.9707 99.7322 37.064 100.97 39.88C102.207 42.696 103.935 45.1707 106.154 47.304C108.415 49.3947 111.06 51.016 114.09 52.168ZM155.542 53V8.2H165.975L185.751 32.0747V8.2H198.167V53H187.734L167.958 29.1253V53H155.542Z" fill="white"/>
<path d="M124.01 43.4C125.716 43.4 127.295 43.1013 128.745 42.504C130.239 41.9067 131.519 41.0533 132.585 39.944C133.695 38.792 134.548 37.4267 135.145 35.848C135.785 34.2693 136.105 32.52 136.105 30.6C136.105 28.6373 135.785 26.888 135.145 25.352C134.548 23.7733 133.695 22.4293 132.585 21.32C131.519 20.168 130.239 19.2933 128.745 18.696C127.295 18.0987 125.716 17.8 124.01 17.8C122.303 17.8 120.703 18.0987 119.21 18.696C117.759 19.2933 116.479 20.168 115.37 21.32C114.303 22.4293 113.45 23.7733 112.81 25.352C112.212 26.888 111.914 28.6373 111.914 30.6C111.914 32.52 112.212 34.2693 112.81 35.848C113.45 37.4267 114.303 38.792 115.37 39.944C116.479 41.0533 117.759 41.9067 119.21 42.504C120.703 43.1013 122.303 43.4 124.01 43.4Z" fill="white"/>
</svg>
